<mxfile host="app.diagrams.net" modified="2021-09-22T07:27:45.553Z" agent="5.0 (Windows NT 10.0; WOW64) AppleWebKit/537.36 (KHTML, like Gecko) Chrome/92.0.4515.131 Safari/537.36" etag="7K0Kb1nYvmi1Agb0h8WS" version="15.2.9" type="github">
  <diagram id="22qsziHcIn2wkPls8kdA" name="Page-1">
    <mxGraphModel dx="1035" dy="547" grid="1" gridSize="10" guides="1" tooltips="1" connect="1" arrows="1" fold="1" page="1" pageScale="1" pageWidth="827" pageHeight="1169" math="0" shadow="0">
      <root>
        <mxCell id="0" />
        <mxCell id="1" parent="0" />
        <mxCell id="UEcl2CCvUrBCWsNmQVka-1" value="模块1" style="whiteSpace=wrap;html=1;fillColor=#ffe6cc;strokeColor=#d79b00;" vertex="1" parent="1">
          <mxGeometry x="200" y="125" width="120" height="55" as="geometry" />
        </mxCell>
        <mxCell id="UEcl2CCvUrBCWsNmQVka-2" value="模块2" style="whiteSpace=wrap;html=1;fillColor=#b1ddf0;strokeColor=#10739e;" vertex="1" parent="1">
          <mxGeometry x="410" y="125" width="120" height="60" as="geometry" />
        </mxCell>
        <mxCell id="UEcl2CCvUrBCWsNmQVka-3" value="模块3" style="whiteSpace=wrap;html=1;fillColor=#d0cee2;strokeColor=#56517e;" vertex="1" parent="1">
          <mxGeometry x="600" y="125" width="120" height="60" as="geometry" />
        </mxCell>
        <mxCell id="UEcl2CCvUrBCWsNmQVka-4" value="模块4" style="whiteSpace=wrap;html=1;strokeWidth=2;fillWeight=4;hachureGap=8;hachureAngle=45;fillColor=#d0cee2;strokeColor=#56517e;" vertex="1" parent="1">
          <mxGeometry x="200" y="260" width="120" height="60" as="geometry" />
        </mxCell>
        <mxCell id="UEcl2CCvUrBCWsNmQVka-5" value="模块5" style="ellipse;whiteSpace=wrap;html=1;strokeWidth=2;fillWeight=2;hachureGap=8;fillColor=#bac8d3;fillStyle=dots;strokeColor=#23445d;" vertex="1" parent="1">
          <mxGeometry x="390" y="270" width="120" height="60" as="geometry" />
        </mxCell>
        <mxCell id="UEcl2CCvUrBCWsNmQVka-6" value="标题1" style="whiteSpace=wrap;html=1;glass=0;fillColor=#b1ddf0;strokeColor=#10739e;" vertex="1" parent="1">
          <mxGeometry x="200" y="380" width="120" height="60" as="geometry" />
        </mxCell>
        <mxCell id="UEcl2CCvUrBCWsNmQVka-7" value="标题2" style="whiteSpace=wrap;html=1;" vertex="1" parent="1">
          <mxGeometry x="320" y="380" width="120" height="60" as="geometry" />
        </mxCell>
        <mxCell id="UEcl2CCvUrBCWsNmQVka-8" value="标题3" style="whiteSpace=wrap;html=1;" vertex="1" parent="1">
          <mxGeometry x="440" y="380" width="120" height="60" as="geometry" />
        </mxCell>
      </root>
    </mxGraphModel>
  </diagram>
</mxfile>
